<?xml version="1.0" encoding="UTF-8"?>
<!-- Generated by Pixelmator Pro 3.7 -->
<svg width="512" height="512" viewBox="0 0 512 512" xmlns="http://www.w3.org/2000/svg">
    <g id="Group-copy">
        <g id="Group">
            <g id="g1">
                <g id="g2">
                    <g id="g3">
                        <g id="g4">
                            <g id="g5">
                                <g id="g6">
                                    <path id="Path" fill="#fe6a16" stroke="none" d="M 394.019897 247.477631 C 394.019897 326.309814 330.11377 390.215973 251.28157 390.215973 C 172.449371 390.215973 108.543251 326.309814 108.543251 247.477631 C 108.543251 168.645447 172.449371 104.739319 251.28157 104.739319 C 330.11377 104.739319 394.019897 168.645447 394.019897 247.477631 Z"/>
                                </g>
                            </g>
                        </g>
                    </g>
                </g>
            </g>
        </g>
        <g id="g7">
            <g id="g8">
                <g id="g9">
                    <g id="g10">
                        <g id="g11">
                            <g id="g12">
                                <g id="g13">
                                    <path id="path1" fill="#f24500" stroke="none" d="M 394.019897 247.477631 C 394.019897 168.677673 330.164917 104.791718 251.376862 104.740112 L 251.376862 390.215149 C 330.16571 390.16275 394.019897 326.278381 394.019897 247.477631 Z"/>
                                </g>
                            </g>
                        </g>
                    </g>
                </g>
            </g>
        </g>
        <g id="g14">
            <g id="g15">
                <g id="g16">
                    <path id="path2" fill="#ff9500" stroke="none" d="M 239.368774 340.136963 L 263.194366 340.136963 L 263.194366 374.990601 L 239.368774 374.990601 Z"/>
                </g>
            </g>
        </g>
        <g id="g17">
            <g id="g18">
                <g id="g19">
                    <path id="path3" fill="#fe6a16" stroke="none" d="M 251.37767 340.136963 L 263.194366 340.136963 L 263.194366 374.990601 L 251.37767 374.990601 Z"/>
                </g>
            </g>
        </g>
        <g id="g20">
            <g id="g21">
                <g id="g22">
                    <path id="path4" fill="#ff9500" stroke="none" d="M 123.7686 235.564056 L 158.622253 235.564056 L 158.622253 259.389648 L 123.7686 259.389648 Z"/>
                </g>
            </g>
            <g id="g23">
                <g id="g24">
                    <path id="path5" fill="#fe6a16" stroke="none" d="M 343.940857 235.564056 L 378.794556 235.564056 L 378.794556 259.389648 L 343.940857 259.389648 Z"/>
                </g>
            </g>
        </g>
        <g id="g25">
            <g id="g26">
                <g id="g27">
                    <path id="path6" fill="#ff9500" stroke="none" d="M 152.668671 165.738678 L 169.513367 148.893982 L 194.154907 173.535522 L 177.310211 190.380219 Z"/>
                </g>
            </g>
            <g id="g28">
                <g id="g29">
                    <path id="path7" fill="#fe6a16" stroke="none" d="M 308.320007 321.416656 L 325.164703 304.57196 L 349.805664 329.212952 L 332.960999 346.057648 Z"/>
                </g>
            </g>
        </g>
        <g id="g30">
            <g id="g31">
                <g id="g32">
                    <path id="path8" fill="#ff9500" stroke="none" d="M 152.651291 329.197998 L 177.292816 304.556488 L 194.137512 321.401184 L 169.495987 346.042725 Z"/>
                </g>
            </g>
            <g id="g33">
                <g id="g34">
                    <path id="path9" fill="#fe6a16" stroke="none" d="M 308.336761 173.548309 L 332.978302 148.906738 L 349.822968 165.751434 L 325.181427 190.392975 Z"/>
                </g>
            </g>
        </g>
    </g>
</svg>
