<?xml version="1.0" encoding="UTF-8"?>
<!-- Generated by Pixelmator Pro 3.7 -->
<svg width="1024" height="1024" viewBox="0 0 1024 1024" xmlns="http://www.w3.org/2000/svg">
    <path id="Path" fill="none" stroke="#000000" stroke-width="8" opacity="0.4" d="M 762 512 C 762 650.071167 650.071167 762 512 762 C 373.928802 762 262 650.071167 262 512 C 262 373.928833 373.928802 262 512 262 C 650.071167 262 762 373.928833 762 512 Z"/>
    <path id="path1" fill="none" stroke="#000000" stroke-width="8" opacity="0.4" d="M 712 512 C 712 622.45697 622.45697 712 512 712 C 401.54306 712 312 622.45697 312 512 C 312 401.543091 401.54306 312 512 312 C 622.45697 312 712 401.543091 712 512 Z"/>
    <path id="path2" fill="none" stroke="#000000" stroke-width="8" opacity="0.4" d="M 662 512 C 662 594.842712 594.842712 662 512 662 C 429.157288 662 362 594.842712 362 512 C 362 429.157288 429.157288 362 512 362 C 594.842712 362 662 429.157288 662 512 Z"/>
    <g id="Group">
        <path id="path3" fill="none" stroke="#000000" stroke-width="20" stroke-linecap="round" stroke-linejoin="round" opacity="0.9" d="M 300 512 L 380 512 L 420 420 L 460 600 L 500 420 L 540 512 L 724 512"/>
    </g>
</svg>
