<?xml version="1.0" encoding="UTF-8"?>
<!-- Generated by Pixelmator Pro 3.7 -->
<svg width="1024" height="1024" viewBox="0 0 1024 1024" xmlns="http://www.w3.org/2000/svg">
    <g id="Group" opacity="0.7">
        <path id="Path" fill="none" stroke="#ffffff" stroke-width="16" stroke-linecap="round" d="M 100 350 C 166.666667 283.333333 233.333333 283.333333 300 350 C 366.666667 416.666667 433.333333 416.666667 500 350 C 566.666667 283.333333 633.333333 283.333333 700 350 C 766.666667 416.666667 833.333333 416.666667 900 350"/>
        <path id="path1" fill="none" stroke="#ffffff" stroke-width="16" stroke-linecap="round" d="M 100 512 C 166.666667 445.333333 233.333333 445.333333 300 512 C 366.666667 578.666667 433.333333 578.666667 500 512 C 566.666667 445.333333 633.333333 445.333333 700 512 C 766.666667 578.666667 833.333333 578.666667 900 512"/>
        <path id="path2" fill="none" stroke="#ffffff" stroke-width="16" stroke-linecap="round" d="M 100 674 C 166.666667 607.333333 233.333333 607.333333 300 674 C 366.666667 740.666667 433.333333 740.666667 500 674 C 566.666667 607.333333 633.333333 607.333333 700 674 C 766.666667 740.666667 833.333333 740.666667 900 674"/>
    </g>
</svg>
