<?xml version="1.0" encoding="UTF-8"?>
<!-- Generated by Pixelmator Pro 2.3.8 -->
<svg width="512" height="512" viewBox="0 0 512 512" xmlns="http://www.w3.org/2000/svg" xmlns:xlink="http://www.w3.org/1999/xlink">
    <g id="XMLID6">
        <g id="Group">
            <path id="XMLID3925" fill="#ee61eb" stroke="none" d="M 253.950882 387.406372 L 268.111053 447.662109 L 253.950882 502.382629 C 221.001602 502.382629 181.067139 510.060272 152.350342 498.301636 C 121.891853 485.83078 102.988037 453.263855 80.086807 430.364075 L 108.40712 373.729095 L 161.401505 349.064941 C 185.075882 372.756317 217.805664 387.406372 253.950882 387.406372 Z"/>
            <path id="XMLID3912" fill="#0065a3" stroke="none" d="M 161.400101 349.050781 L 161.400101 349.066345 L 80.085403 430.365479 C 57.839798 408.119873 25.676414 383.046509 13.233891 353.631592 C 0.789944 324.212463 8.066848 290.451782 8.066848 256.501404 L 69.057472 242.341278 L 123.058632 256.501404 C 123.060059 292.629639 137.710144 325.359436 161.400101 349.050781 Z"/>
            <path id="XMLID3922" fill="#99eeff" stroke="none" d="M 161.400101 163.949249 C 137.710144 187.63916 123.058632 220.370331 123.058632 256.5 L 8.066848 256.5 C 8.066848 225.892822 -1.916067 186.680511 8.303322 159.651581 C 20.754347 126.71936 55.649216 107.072144 80.085403 82.635956 L 140.336868 114.568512 Z"/>
            <path id="XMLID3920" fill="#93e300" stroke="none" d="M 253.950882 10.617401 L 268.111053 68.168488 L 253.950882 125.593567 C 217.791504 125.593567 185.075882 140.259277 161.400101 163.949249 L 80.085403 82.634521 C 102.330994 60.388916 114.663078 28.224121 144.080811 15.780182 C 173.498535 3.337646 220.001907 10.617401 253.950882 10.617401 Z"/>
            <path id="XMLID3917" fill="#fff375" stroke="none" d="M 427.814941 82.635956 L 399.34314 139.42807 L 346.515808 163.935059 C 322.825867 140.245117 290.094666 125.593567 253.950882 125.593567 L 253.950882 10.617401 C 286.697662 10.617401 332.10788 2.860443 360.680206 14.481689 C 391.348297 26.955353 404.773529 59.601624 427.814941 82.635956 Z"/>
            <path id="XMLID3905" fill="#ffc34d" stroke="none" d="M 499.849091 256.5 L 441.942505 270.660156 L 384.857269 256.5 C 384.857269 220.354797 370.207153 187.624969 346.515808 163.935059 L 427.814941 82.635956 L 427.830505 82.635956 C 450.864838 105.670258 483.511108 119.09549 495.984772 149.766388 C 507.606018 178.340149 499.849091 223.753204 499.849091 256.5 Z"/>
            <path id="XMLID3909" fill="#ff3377" stroke="none" d="M 499.849091 256.5 C 499.849091 289.24823 517.520935 330.411743 505.901123 358.982727 C 493.424591 389.660706 450.860596 407.335388 427.814941 430.365479 L 374.143677 405.014526 L 346.515808 349.066345 C 370.20578 325.376404 384.857269 292.645203 384.857269 256.501404 L 499.849091 256.501404 Z"/>
            <path id="XMLID3902" fill="#ff5ca8" stroke="none" d="M 427.814941 430.364075 C 405.560852 452.611084 383.318054 484.775879 353.901764 497.218414 C 324.486847 509.660919 287.898438 502.382629 253.949463 502.382629 L 253.949463 387.404999 C 290.094666 387.404999 322.824493 372.754883 346.514404 349.063507 Z"/>
        </g>
        <g id="g1">
            <path id="XMLID3921" fill="#c331c8" stroke="none" d="M 253.950882 502.382629 L 268.111053 562.828064 L 253.950882 618.983032 C 154.060898 618.576599 63.720512 577.768433 -1.588963 512.038452 L 24.859379 457.269775 L 80.086807 430.36264 C 124.579445 474.856659 186.052917 502.382629 253.950882 502.382629 Z"/>
            <path id="XMLID3899" fill="#ff3377" stroke="none" d="M 511.039825 513.588989 C 445.503815 578.734192 355.210144 619 255.5 619 C 254.988831 619 254.462051 619 253.950882 618.984436 L 253.950882 502.382629 C 321.848816 502.382629 383.308167 474.856659 427.814941 430.364075 L 487.893677 462.122467 Z"/>
            <path id="XMLID3910" fill="#e50048" stroke="none" d="M 618 256.5 C 618 356.99176 577.102661 447.94812 511.039825 513.588989 L 427.814941 430.364075 C 472.323151 385.886993 499.849091 324.412109 499.849091 256.5 L 559.943359 242.339844 Z"/>
            <path id="XMLID3915" fill="#ff9933" stroke="none" d="M 618 256.5 L 499.849091 256.5 C 499.849091 188.60202 472.323151 127.12854 427.830505 82.635956 L 455.803894 26.335144 L 511.039825 -0.588928 C 577.102661 65.051849 618 156.008179 618 256.5 Z"/>
            <path id="XMLID3913" fill="#ffde46" stroke="none" d="M 511.039825 -0.588928 L 427.830505 82.635956 L 427.814941 82.635956 C 383.306732 38.14328 321.847443 10.617401 253.950882 10.617401 L 239.790726 -42.277893 L 253.950882 -105.984436 C 254.462051 -106 254.988831 -106 255.5 -106 C 355.210144 -106 445.503815 -65.734192 511.039825 -0.588928 Z"/>
            <path id="XMLID3914" fill="#00da26" stroke="none" d="M 253.950882 -105.984436 L 253.950882 10.617401 C 186.054352 10.617401 124.579445 38.14328 80.086807 82.635956 L 25.806692 56.676117 L -1.588963 0.960175 C 63.720512 -64.771301 154.060898 -105.579468 253.950882 -105.984436 Z"/>
            <path id="XMLID3918" fill="#33ddff" stroke="none" d="M 80.086807 82.635956 C 35.59277 127.12854 8.066848 188.60202 8.066848 256.5 L -53.662941 270.660156 L -107 256.5 C -107 156.789825 -66.734177 66.496185 -1.588963 0.960175 Z"/>
            <path id="XMLID3900" fill="#194d80" stroke="none" d="M 80.086807 430.364075 L -1.588963 512.039856 C -66.734177 446.503815 -107 356.210144 -107 256.5 L 8.066848 256.5 C 8.066848 324.397949 35.59277 385.87146 80.086807 430.364075 Z"/>
        </g>
    </g>
    <g id="Group-copy">
        <path id="Path" fill="#000000" fill-opacity="0.504033" stroke="none" d="M 454 248.338531 L 352.453735 146.793091 L 346.969086 154.480804 L 269.765442 77.277161 L 151.327667 349.377289 L 237.889191 435.565582 C 242.316788 435.853882 246.781708 436 251.28157 436 C 358.301361 436 446.008911 353.311707 454 248.338531 Z"/>
        <g id="g2">
            <g id="g3">
                <g id="g4">
                    <g id="g5">
                        <g id="g6">
                            <g id="g7">
                                <g id="g8">
                                    <path id="path1" fill="#fe6a16" stroke="none" d="M 394.019897 247.477631 C 394.019897 326.309814 330.11377 390.215973 251.28157 390.215973 C 172.449371 390.215973 108.543251 326.309814 108.543251 247.477631 C 108.543251 168.645447 172.449371 104.739319 251.28157 104.739319 C 330.11377 104.739319 394.019897 168.645447 394.019897 247.477631 Z"/>
                                </g>
                            </g>
                        </g>
                    </g>
                </g>
            </g>
        </g>
        <g id="g9">
            <g id="g10">
                <g id="g11">
                    <g id="g12">
                        <g id="g13">
                            <g id="g14">
                                <g id="g15">
                                    <path id="path2" fill="#f24500" stroke="none" d="M 394.019897 247.477631 C 394.019897 168.677673 330.164917 104.791718 251.376862 104.740112 L 251.376862 390.215149 C 330.16571 390.16275 394.019897 326.278381 394.019897 247.477631 Z"/>
                                </g>
                            </g>
                        </g>
                    </g>
                </g>
            </g>
        </g>
        <g id="g16">
            <g id="g17">
                <path id="path3" fill="#d13400" stroke="none" d="M 246.062973 149.368622 L 269.766235 276.964966 L 369.607391 167.618256 C 345.5896 132.100647 306.000183 107.97641 260.637878 105.041138 Z"/>
            </g>
        </g>
        <g id="g18">
            <g id="g19">
                <path id="path4" fill="#ffa426" stroke="none" d="M 228.961746 77.277161 L 269.765442 77.277161 L 269.765442 276.964966 L 228.961746 276.964966 Z"/>
            </g>
        </g>
        <g id="g20">
            <g id="g21">
                <path id="path5" fill="#fe8205" stroke="none" d="M 251.37767 77.277161 L 269.766235 77.277161 L 269.766235 276.964966 L 251.37767 276.964966 Z"/>
            </g>
        </g>
        <g id="g22">
            <g id="g23">
                <g id="g24">
                    <path id="path6" fill="#ff9500" stroke="none" d="M 239.368774 340.136963 L 263.194366 340.136963 L 263.194366 374.990601 L 239.368774 374.990601 Z"/>
                </g>
            </g>
        </g>
        <g id="g25">
            <g id="g26">
                <g id="g27">
                    <path id="path7" fill="#fe6a16" stroke="none" d="M 251.37767 340.136963 L 263.194366 340.136963 L 263.194366 374.990601 L 251.37767 374.990601 Z"/>
                </g>
            </g>
        </g>
        <g id="g28">
            <g id="g29">
                <g id="g30">
                    <path id="path8" fill="#ff9500" stroke="none" d="M 123.7686 235.564056 L 158.622253 235.564056 L 158.622253 259.389648 L 123.7686 259.389648 Z"/>
                </g>
            </g>
            <g id="g31">
                <g id="g32">
                    <path id="path9" fill="#fe6a16" stroke="none" d="M 343.940857 235.564056 L 378.794556 235.564056 L 378.794556 259.389648 L 343.940857 259.389648 Z"/>
                </g>
            </g>
        </g>
        <g id="g33">
            <g id="g34">
                <g id="g35">
                    <path id="path10" fill="#ff9500" stroke="none" d="M 152.668671 165.738678 L 169.513367 148.893982 L 194.154907 173.535522 L 177.310211 190.380219 Z"/>
                </g>
            </g>
            <g id="g36">
                <g id="g37">
                    <path id="path11" fill="#fe6a16" stroke="none" d="M 308.320007 321.416656 L 325.164703 304.57196 L 349.805664 329.212952 L 332.960999 346.057648 Z"/>
                </g>
            </g>
        </g>
        <g id="g38">
            <g id="g39">
                <g id="g40">
                    <path id="path12" fill="#ff9500" stroke="none" d="M 152.651291 329.197998 L 177.292816 304.556488 L 194.137512 321.401184 L 169.495987 346.042725 Z"/>
                </g>
            </g>
            <g id="g41">
                <g id="g42">
                    <path id="path13" fill="#fe6a16" stroke="none" d="M 308.336761 173.548309 L 332.978302 148.906738 L 349.822968 165.751434 L 325.181427 190.392975 Z"/>
                </g>
            </g>
        </g>
    </g>
</svg>
